:FULLY-SPECIFIED
:FORCE-ALL-JOINTS-BE-3DOF
:DEGREES
1019
root 1.14707 15.1608 32.4375 4.84671 -3.36046 363.569
lfemur 8.38506 0.400799 5.73535
ltibia 9.54166e-15 0 0
lfoot -30.1391 -10.9624 0
ltoes -34.4486 0 0
rfemur -31.5237 -15.9694 -6.02793
rtibia 50.1737 0 0
rfoot -22.4349 4.57759 0
rtoes -42.7568 0 0
lowerback -1.4372 -0.171921 0.312403
upperback -0.50639 -0.216405 -5.90928
thorax 0.261394 -0.114569 -6.30666
lowerneck -7.21384 0.909863 6.21499
upperneck 1.59588 0.532663 3.40522
head 1.73502 0.397147 0.0375557
lclavicle -7.85199e-15 -1.11319e-14 0
lhumerus -58.5627 -46.3297 115.166
lradius 55.7526 0 0
lwrist 25.3354 0 0
lhand 37.2172 24.9006 0
lfingers 7.12502 0 0
lthumb 60.0511 38.6272 0
rclavicle -7.85199e-15 -1.11319e-14 0
rhumerus 2.77358 -23.808 0.302593
rradius 27.7032 0 0
rwrist -10.2791 0 0
rhand -30.7244 -42.9162 0
rfingers 7.12502 0 0
rthumb -4.01705 -792.858 0
1020
root 1.14724 15.1606 32.4398 4.84979 -3.36018 363.556
lfemur 8.39295 0.402287 5.74828
ltibia 1.59028e-14 0 0
lfoot -30.143 -10.9581 0
ltoes -34.4578 0 0
rfemur -31.5248 -15.9603 -6.0193
rtibia 50.1838 0 0
rfoot -22.4055 4.61845 0
rtoes -42.6851 0 0
lowerback -1.44695 -0.162624 0.292099
upperback -0.512082 -0.203618 -5.9165
thorax 0.262488 -0.108192 -6.30247
lowerneck -7.21675 0.904826 6.24026
upperneck 1.6187 0.522028 3.41393
head 1.74299 0.393078 0.035709
lclavicle -7.95139e-16 -2.54444e-14 0
lhumerus -58.5865 -46.3582 115.189
lradius 55.7669 0 0
lwrist 25.3314 0 0
lhand 37.2183 24.9323 0
lfingers 7.12502 0 0
lthumb 60.052 38.6579 0
rclavicle -7.95139e-16 -2.54444e-14 0
rhumerus 2.76196 -23.804 0.302383
rradius 27.6953 0 0
rwrist -10.2475 0 0
rhand -30.7173 -42.8612 0
rfingers 7.12502 0 0
rthumb -4.01017 -792.803 0
1021
root 1.14747 15.1604 32.4422 4.85074 -3.36302 363.544
lfemur 8.40432 0.40561 5.7605
ltibia -2.22639e-14 0 0
lfoot -30.146 -10.9595 0
ltoes -34.4609 0 0
rfemur -31.5251 -15.9507 -6.01189
rtibia 50.1932 0 0
rfoot -22.3746 4.66606 0
rtoes -42.6059 0 0
lowerback -1.45395 -0.153088 0.271925
upperback -0.517494 -0.190583 -5.92539
thorax 0.262331 -0.101709 -6.30012
lowerneck -7.21972 0.900696 6.26333
upperneck 1.64214 0.512399 3.43225
head 1.75113 0.389762 0.0373101
lclavicle -4.67144e-15 -1.74931e-14 0
lhumerus -58.6132 -46.3967 115.218
lradius 55.7764 0 0
lwrist 25.3203 0 0
lhand 37.2229 24.9594 0
lfingers 7.12502 0 0
lthumb 60.056 38.6808 0
rclavicle -4.67144e-15 -1.74931e-14 0
rhumerus 2.75044 -23.8069 0.29635
rradius 27.6834 0 0
rwrist -10.2205 0 0
rhand -30.712 -42.8112 0
rfingers 7.12502 0 0
rthumb -4.00498 -792.753 0
1022
root 1.14781 15.1602 32.4446 4.84916 -3.36795 363.533
lfemur 8.41926 0.409668 5.77189
ltibia -1.59028e-15 0 0
lfoot -30.148 -10.9658 0
ltoes -34.4583 0 0
rfemur -31.523 -15.9423 -6.00599
rtibia 50.201 0 0
rfoot -22.3431 4.7212 0
rtoes -42.5195 0 0
lowerback -1.45885 -0.143711 0.252542
upperback -0.521928 -0.177784 -5.93571
thorax 0.261974 -0.0953351 -6.29974
lowerneck -7.22138 0.897307 6.28427
upperneck 1.6643 0.503815 3.45845
head 1.75858 0.387095 0.0417991
lclavicle 1.5207e-14 5.88403e-14 0
lhumerus -58.6396 -46.4412 115.251
lradius 55.7802 0 0
lwrist 25.304 0 0
lhand 37.2324 24.9808 0
lfingers 7.12502 0 0
lthumb 60.0641 38.6937 0
rclavicle 1.5207e-14 5.88403e-14 0
rhumerus 2.73932 -23.8153 0.285548
rradius 27.6676 0 0
rwrist -10.1957 0 0
rhand -30.7068 -42.7679 0
rfingers 7.12502 0 0
rthumb -3.99999 -792.71 0
1023
root 1.14832 15.1599 32.4472 4.84514 -3.37411 363.522
lfemur 8.43757 0.413753 5.78224
ltibia 1.11319e-14 0 0
lfoot -30.1494 -10.9756 0
ltoes -34.4515 0 0
rfemur -31.5177 -15.9368 -6.00177
rtibia 50.2068 0 0
rfoot -22.3119 4.78409 0
rtoes -42.4268 0 0
lowerback -1.4629 -0.134767 0.234384
upperback -0.524829 -0.165532 -5.94701
thorax 0.262641 -0.0892001 -6.30112
lowerneck -7.22052 0.894607 6.30376
upperneck 1.68308 0.496466 3.48946
head 1.76447 0.385014 0.0480874
lclavicle -9.74045e-15 -1.74931e-14 0
lhumerus -58.6625 -46.4871 115.282
lradius 55.7781 0 0
lwrist 25.2854 0 0
lhand 37.2456 24.9973 0
lfingers 7.12502 0 0
lthumb 60.0753 38.6983 0
rclavicle -9.74045e-15 -1.74931e-14 0
rhumerus 2.72856 -23.8255 0.272099
rradius 27.6485 0 0
rwrist -10.1722 0 0
rhand -30.7015 -42.7332 0
rfingers 7.12502 0 0
rthumb -3.99486 -792.676 0
1024
root 1.14901 15.1597 32.45 4.83932 -3.38123 363.512
lfemur 8.45864 0.417884 5.79077
ltibia 1.43125e-14 0 0
lfoot -30.1505 -10.9878 0
ltoes -34.4418 0 0
rfemur -31.5095 -15.9352 -5.99968
rtibia 50.2104 0 0
rfoot -22.2819 4.85469 0
rtoes -42.3292 0 0
lowerback -1.46754 -0.126261 0.217172
upperback -0.526073 -0.153777 -5.95898
thorax 0.265286 -0.0832606 -6.30377
lowerneck -7.21602 0.892208 6.32273
upperneck 1.69671 0.49007 3.52178
head 1.76802 0.383222 0.0548987
lclavicle 9.93923e-17 -7.95139e-15 0
lhumerus -58.68 -46.5308 115.309
lradius 55.7707 0 0
lwrist 25.268 0 0
lhand 37.2613 25.0098 0
lfingers 7.12502 0 0
lthumb 60.0887 38.6966 0
rclavicle 9.93923e-17 -7.95139e-15 0
rhumerus 2.71832 -23.834 0.258088
rradius 27.6264 0 0
rwrist -10.1476 0 0
rhand -30.6945 -42.7094 0
rfingers 7.12502 0 0
rthumb -3.98815 -792.652 0
1025
root 1.14994 15.1595 32.453 4.83292 -3.38936 363.504
lfemur 8.48158 0.422626 5.79657
ltibia -4.77083e-15 0 0
lfoot -30.1522 -11.0004 0
ltoes -34.4308 0 0
rfemur -31.4995 -15.9383 -6.00024
rtibia 50.2121 0 0
rfoot -22.2537 4.93258 0
rtoes -42.2281 0 0
lowerback -1.4746 -0.118091 0.200309
upperback -0.525744 -0.142317 -5.97119
thorax 0.270877 -0.0774016 -6.3069
lowerneck -7.20747 0.889837 6.34201
upperneck 1.70395 0.484443 3.55148
head 1.76878 0.381483 0.0608352
lclavicle -7.15625e-15 -5.88403e-14 0
lhumerus -58.6907 -46.5695 115.329
lradius 55.7595 0 0
lwrist 25.2544 0 0
lhand 37.2784 25.0208 0
lfingers 7.12502 0 0
lthumb 60.1034 38.6921 0
rclavicle -7.15625e-15 -5.88403e-14 0
rhumerus 2.70887 -23.8386 0.245556
rradius 27.6018 0 0
rwrist -10.1195 0 0
rhand -30.6841 -42.6942 0
rfingers 7.12502 0 0
rthumb -3.97813 -792.637 0
1026
root 1.15111 15.1593 32.4561 4.8271 -3.39857 363.498
lfemur 8.50526 0.428502 5.79878
ltibia -1.90833e-14 0 0
lfoot -30.155 -11.0126 0
ltoes -34.4198 0 0
rfemur -31.4895 -15.9466 -6.00398
rtibia 50.2125 0 0
rfoot -22.2278 5.01696 0
rtoes -42.1253 0 0
lowerback -1.48515 -0.110075 0.182968
upperback -0.524095 -0.130875 -5.98328
thorax 0.279786 -0.0714806 -6.30964
lowerneck -7.19527 0.887263 6.36149
upperneck 1.70409 0.479394 3.57599
head 1.76656 0.37961 0.0650953
lclavicle 2.48481e-15 -1.11319e-14 0
lhumerus -58.6944 -46.6018 115.342
lradius 55.7464 0 0
lwrist 25.2466 0 0
lhand 37.2956 25.0327 0
lfingers 7.12502 0 0
lthumb 60.118 38.6885 0
rclavicle 2.48481e-15 -1.11319e-14 0
rhumerus 2.70047 -23.8397 0.235906
rradius 27.5757 0 0
rwrist -10.0856 0 0
rhand -30.6696 -42.6856 0
rfingers 7.12502 0 0
rthumb -3.96404 -792.628 0
